<?xml version="1.0" encoding="UTF-8" standalone="no"?>
<!DOCTYPE svg PUBLIC "-//W3C//DTD SVG 1.1//EN" "http://www.w3.org/Graphics/SVG/1.1/DTD/svg11.dtd">
<svg width="100%" height="100%" viewBox="0 0 100 100" version="1.1" xmlns="http://www.w3.org/2000/svg" xmlns:xlink="http://www.w3.org/1999/xlink" xml:space="preserve" xmlns:serif="http://www.serif.com/" style="fill-rule:evenodd;clip-rule:evenodd;stroke-linecap:round;stroke-linejoin:round;stroke-miterlimit:1.5;">
    <g transform="matrix(1,0,0,1,-100,0)">
        <g transform="matrix(0.25,0,0,0.25,76.9195,37.4957)">
            <g transform="matrix(0.707107,0.707107,-0.353553,0.353553,-83.2412,-130.312)">
                <path d="M250,10L250,90" style="fill:none;stroke:rgb(128,128,128);stroke-width:5.06px;"/>
            </g>
            <g transform="matrix(0.707107,-0.707107,0.353553,0.353553,-118.597,194.957)">
                <path d="M250,10L250,90" style="fill:none;stroke:rgb(128,128,128);stroke-width:5.06px;"/>
            </g>
            <g transform="matrix(1,0,0,1,-200,2.84217e-14)">
                <path d="M210,50L290,50" style="fill:none;stroke:rgb(128,128,128);stroke-width:4px;"/>
            </g>
        </g>
        <g transform="matrix(-0.25,0,0,0.25,123.071,37.4854)">
            <g transform="matrix(0.707107,0.707107,-0.353553,0.353553,-83.2412,-130.312)">
                <path d="M250,10L250,90" style="fill:none;stroke:rgb(128,128,128);stroke-width:5.06px;"/>
            </g>
            <g transform="matrix(0.707107,-0.707107,0.353553,0.353553,-118.597,194.957)">
                <path d="M250,10L250,90" style="fill:none;stroke:rgb(128,128,128);stroke-width:5.06px;"/>
            </g>
            <g transform="matrix(1,0,0,1,-200,2.84217e-14)">
                <path d="M210,50L290,50" style="fill:none;stroke:rgb(128,128,128);stroke-width:4px;"/>
            </g>
        </g>
    </g>
</svg>
